<?xml version="1.0" standalone="no"?>
<!DOCTYPE svg PUBLIC "-//W3C//DTD SVG 20010904//EN"
 "http://www.w3.org/TR/2001/REC-SVG-20010904/DTD/svg10.dtd">
<svg version="1.0" xmlns="http://www.w3.org/2000/svg"
 width="720.000000pt" height="720.000000pt" viewBox="0 0 720.000000 720.000000"
 preserveAspectRatio="xMidYMid meet">
<metadata>
Created by potrace 1.14, written by Peter Selinger 2001-2017
</metadata>
<g transform="translate(0.000000,720.000000) scale(0.100000,-0.100000)"
fill="#000000" stroke="none">
<path d="M3260 6360 c-1106 -80 -2046 -813 -2385 -1860 -20 -62 -34 -114 -32
-116 14 -14 170 -14 236 0 92 19 115 34 145 94 34 67 97 135 117 127 17 -6 29
-46 29 -91 0 -13 3 -24 8 -24 4 0 45 14 92 31 167 61 291 99 351 108 177 24
316 -70 275 -188 -6 -17 2 -13 30 19 65 72 160 101 212 64 44 -31 57 -71 56
-179 -2 -215 -66 -419 -228 -724 l-76 -143 0 -143 c0 -286 60 -412 202 -431
56 -8 63 -14 43 -40 -11 -16 -26 -19 -97 -19 -70 0 -90 4 -128 25 -82 46 -139
162 -161 330 -13 96 -6 520 11 660 28 232 72 435 111 513 l20 38 -22 -13 c-52
-31 -63 -36 -71 -32 -4 3 -1 19 8 36 22 43 7 74 -43 87 -54 15 -69 14 -174
-13 -103 -27 -392 -130 -425 -151 -17 -11 -25 -34 -38 -107 -18 -105 -32 -216
-42 -330 -6 -72 -5 -78 12 -78 21 0 143 33 276 76 49 15 91 24 95 21 11 -12
-48 -66 -111 -104 -63 -37 -239 -113 -262 -113 -23 0 -31 -32 -43 -180 -20
-237 -64 -446 -117 -550 -32 -64 -117 -140 -156 -140 -21 0 -24 49 -8 127 22
105 100 654 100 704 0 10 -23 22 -69 37 -119 39 -124 76 -10 85 39 3 76 10 82
16 5 5 18 83 28 172 11 90 26 196 33 234 7 39 11 73 10 76 -2 4 -43 9 -92 13
-49 4 -117 17 -156 31 -48 17 -68 20 -72 12 -10 -30 -45 -216 -60 -328 -20
-148 -22 -463 -5 -619 118 -1042 810 -1909 1802 -2258 113 -40 346 -97 479
-118 141 -22 527 -30 673 -14 674 72 1250 364 1720 870 289 311 517 738 623
1169 26 107 27 111 9 131 -10 11 -25 47 -35 81 l-17 62 -22 -37 c-96 -155
-261 -92 -261 101 0 185 154 347 331 348 l69 0 0 66 c0 100 -18 259 -46 402
-103 531 -357 1008 -740 1391 -470 469 -1062 737 -1739 786 -153 11 -189 11
-345 0z m1070 -1798 c41 -42 47 -110 26 -306 -10 -88 -24 -202 -32 -255 -79
-515 -93 -667 -76 -791 13 -94 30 -124 69 -125 35 0 41 -25 17 -76 -18 -41
-67 -79 -102 -79 -11 0 -34 11 -50 25 -73 61 -108 222 -98 446 8 169 23 297
87 708 28 178 48 330 45 337 -4 10 -14 10 -52 -2 -25 -7 -50 -11 -55 -8 -29
18 26 100 89 134 54 28 98 26 132 -8z m1210 -76 c0 -2 -7 -21 -16 -41 -42
-101 -100 -343 -139 -578 -71 -432 -58 -723 37 -824 34 -36 17 -56 -42 -51
-84 8 -146 77 -189 211 -7 20 -16 37 -19 37 -4 0 -18 -16 -32 -35 -27 -37 -74
-65 -111 -65 -33 0 -101 36 -122 65 -28 39 -41 144 -28 232 25 169 136 285
273 287 l57 1 7 45 c24 183 84 417 133 523 35 78 100 159 143 180 33 16 48 21
48 13z m149 -482 c39 -50 14 -110 -49 -120 -51 -8 -90 24 -90 76 0 47 27 70
81 70 29 0 43 -6 58 -26z m-3822 -126 c47 -44 11 -128 -56 -128 -71 0 -113 90
-62 132 32 25 89 23 118 -4z m814 -134 c22 -24 24 -34 24 -125 0 -54 3 -99 7
-99 4 0 25 26 47 58 40 59 67 83 108 96 17 5 31 -1 58 -26 31 -28 37 -41 42
-90 5 -52 -21 -256 -48 -375 -16 -73 -11 -147 12 -177 11 -14 18 -30 15 -35
-10 -16 -61 -19 -93 -6 -77 32 -93 124 -63 355 11 85 20 156 20 158 0 14 -27
-23 -75 -104 -58 -97 -86 -121 -126 -109 -42 13 -52 59 -47 202 4 87 2 130 -5
126 -17 -10 -74 -145 -125 -294 -89 -258 -111 -292 -168 -254 -49 32 -58 74
-58 250 1 227 27 382 68 411 11 8 35 14 53 14 61 0 68 -42 38 -243 -5 -38 -2
-35 38 43 74 146 129 222 172 240 40 17 81 11 106 -16z m1870 -1 c7 -17 9 -61
5 -113 l-6 -85 18 40 c29 63 84 105 135 105 107 0 136 -88 106 -320 -14 -115
-15 -276 -1 -326 7 -23 21 -53 32 -67 26 -33 25 -37 -5 -37 -68 0 -144 66
-167 142 -14 50 -17 257 -4 377 6 62 5 82 -3 77 -18 -11 -56 -93 -91 -196 -53
-155 -83 -200 -135 -200 -26 0 -52 49 -61 118 -11 86 32 332 74 417 16 33 71
95 84 95 5 0 13 -12 19 -27z m1090 7 c24 -13 26 -86 4 -190 -19 -88 -22 -295
-5 -315 7 -8 25 -15 41 -15 38 0 37 -11 -6 -49 -87 -76 -186 -7 -201 140 -8
79 21 340 42 381 14 27 61 57 92 58 7 0 22 -5 33 -10z m-2443 -42 c18 -18 15
-124 -8 -240 -11 -58 -20 -144 -20 -197 l0 -94 24 22 c32 30 131 230 151 306
8 33 20 77 26 97 11 42 54 98 75 98 26 0 36 -80 34 -279 -1 -108 -2 -200 -1
-205 1 -6 12 5 26 24 13 18 66 78 116 132 68 74 97 98 116 98 23 0 24 -3 18
-32 -6 -28 -74 -141 -95 -158 -4 -3 -44 -54 -89 -115 l-83 -110 8 -115 c5 -63
8 -182 7 -265 -1 -164 -19 -255 -68 -360 -37 -76 -68 -111 -120 -130 -42 -17
-46 -17 -82 2 -106 55 -131 271 -57 505 29 90 54 145 117 252 39 65 41 74 39
135 -2 36 -8 70 -13 75 -5 6 -22 -4 -43 -27 -41 -45 -78 -60 -128 -52 -116 20
-160 196 -104 417 29 113 54 166 96 202 36 29 41 31 58 14z m-1373 -91 c16
-12 17 -23 12 -88 -4 -41 -11 -101 -16 -134 -6 -33 -11 -106 -12 -162 -3 -113
5 -133 52 -133 38 0 37 -11 -6 -49 -62 -54 -136 -33 -183 53 -21 39 -21 233 1
374 16 100 26 118 72 138 39 17 57 17 80 1z"/>
<path d="M5111 3599 c-49 -50 -91 -208 -77 -284 6 -28 11 -35 31 -35 31 0 81
68 100 135 21 79 29 196 13 206 -23 15 -37 10 -67 -22z"/>
<path d="M3322 2791 c-85 -191 -114 -382 -72 -473 47 -100 98 77 107 370 3 94
4 172 1 172 -3 0 -19 -31 -36 -69z"/>
<path d="M2263 4438 c-34 -44 -98 -234 -118 -353 -10 -58 -44 -350 -41 -353 2
-1 26 47 55 107 99 209 131 332 131 502 0 104 -6 124 -27 97z"/>
<path d="M6035 3593 c-48 -25 -95 -74 -122 -127 -28 -55 -44 -166 -24 -166 6
0 53 63 104 140 61 94 99 142 115 146 12 4 22 10 22 15 0 15 -63 10 -95 -8z"/>
</g>
</svg>
